<svg xmlns="http://www.w3.org/2000/svg" fill="none" viewBox="0 0 32 32">
  <circle cx="15.875" cy="15.875" r="15.875" fill="#FF8FAC"/>
  <path d="M15.875 13.275c0-1.135.502-2.223 1.395-3.026.893-.803 2.104-1.254 3.367-1.254 3.334 0 4.762 2.997 4.762 5.35 0 6.237-6.586 10.239-8.805 11.411a1.554 1.554 0 01-.715.172c-.25 0-.497-.059-.714-.172-2.229-1.172-8.815-5.174-8.815-11.41 0-2.367 1.429-5.35 4.762-5.35.626 0 1.245.11 1.823.325a4.83 4.83 0 011.545.928c.442.397.793.87 1.032 1.389.24.519.363 1.075.363 1.637z" fill="#fff"/>
</svg>
