<svg xmlns="http://www.w3.org/2000/svg" fill="none" viewBox="0 0 48 44">
  <path d="M4.814 26.733a17.77 17.77 0 1034.21-9.627 17.77 17.77 0 00-34.21 9.627z" fill="#FFFF49"/>
  <path d="M44.89 23.19a4.123 4.123 0 011.072 3.51 5.333 5.333 0 01-2.197 3.609l-6.39 4.355-4.841-6.022a5.33 5.33 0 01-1.046-4.108 4.131 4.131 0 012.05-3.05 3.243 3.243 0 014.33 1.153l1.055 1.65 1.497-1.242a3.243 3.243 0 014.47.145z" fill="#FF5B30"/>
  <path d="M10.722 29.686c.2.71 1.319 1.013 2.499.68 1.18-.331 1.977-1.174 1.777-1.884-.2-.71-1.319-1.013-2.5-.681-1.18.332-1.976 1.175-1.776 1.885z" fill="#FEB3EB"/>
  <path fill-rule="evenodd" clip-rule="evenodd" d="M30.393 18.41a1.305 1.305 0 00-.903 1.61.25.25 0 01-.481.135 1.805 1.805 0 013.475-.978.25.25 0 11-.482.135 1.305 1.305 0 00-1.61-.902z" fill="#656565"/>
  <path d="M11.416 23.952a.888.888 0 101.71-.481.888.888 0 00-1.71.48z" fill="#656565"/>
  <path fill-rule="evenodd" clip-rule="evenodd" d="M11.278 23.154a1.138 1.138 0 111.986 1.114 1.138 1.138 0 01-1.986-1.114zm.82-.057a.639.639 0 10.346 1.229.639.639 0 00-.346-1.23zm12.176 3.88h.001a2.027 2.027 0 011.97 3.398 2.025 2.025 0 011.493 1.426 2.027 2.027 0 01-1.402 2.5c-.343.096-.705.1-1.05.011a.25.25 0 11.124-.484 1.527 1.527 0 001.709-.731 1.527 1.527 0 00-1.746-2.217.25.25 0 11-.135-.482 1.527 1.527 0 10-1.506-2.534.25.25 0 01-.359-.349 2.04 2.04 0 01.901-.538z" fill="#656565"/>
</svg>
