<svg xmlns="http://www.w3.org/2000/svg" fill="none" viewBox="0 0 33 39">
  <path d="M6.247 26.933c.8-2.482-1.882-7.056 3.607-9.055-.862 5.112 6.247 6.573 4.628 11.674l-8.235-2.619z" fill="#FF6242"/>
  <path d="M26.292 7.888c.946 2.618.641 4.143-.526 5.258C20.424 9.78 14.05 7.362 13.02 0c-10.917 8.413 5.384 19.982-2.503 23.137-3.902 1.567-7.362-2.104-6.836-6.216A11.643 11.643 0 000 25.241c0 7.256 7.299 13.145 16.301 13.145 20.613 0 18.93-27.343 9.99-30.498z" fill="#FF6242"/>
  <path d="M23.663 24.189c-1.578 4.732-5.805 6.614-9.56 6.814a5.257 5.257 0 004.827 3.155c5.91.021 9.991-6.289 4.733-9.97z" fill="#FFFF49"/>
</svg>
