<svg xmlns="http://www.w3.org/2000/svg" fill="none" viewBox="0 0 45 45">
  <circle cx="22.5" cy="22.5" r="22.5" fill="#FFE6EC"/>
  <path d="M22.5 18.816c0-1.608.711-3.151 1.977-4.29 1.266-1.137 2.983-1.776 4.773-1.776 4.725 0 6.75 4.247 6.75 7.583 0 8.839-9.335 14.511-12.48 16.173-.309.16-.658.244-1.013.244-.356 0-.705-.084-1.013-.244C18.335 34.844 9 29.172 9 20.333c0-3.355 2.025-7.583 6.75-7.583.886 0 1.764.157 2.583.462a6.844 6.844 0 012.19 1.315 6.067 6.067 0 011.463 1.968c.34.736.514 1.525.514 2.321z" fill="#FF6242"/>
</svg>
