<svg xmlns="http://www.w3.org/2000/svg" fill="none" viewBox="0 0 120 25">
  <path d="M0 12.5C0 5.596 5.654 0 12.629 0h94.534c6.975 0 12.629 5.596 12.629 12.5S114.138 25 107.163 25H12.629C5.654 25 0 19.404 0 12.5z" fill="#D7C7FF"/>
  <path d="M53.653 14.99v.594H50v-4.778h3.552v.594H50.72v1.467h2.524v.58H50.72v1.543h2.934zm2.882-3.058c.485 0 .868.134 1.151.403.288.264.431.653.431 1.167v2.082h-.69v-2.007c0-.35-.088-.614-.266-.792-.177-.177-.431-.266-.762-.266-.374 0-.669.105-.885.314-.215.205-.323.5-.323.887v1.864h-.69v-3.618h.661v.546c.14-.186.326-.33.561-.43.24-.1.51-.15.813-.15zm5.946.034l-1.668 3.618h-.705l-1.668-3.618h.72l1.308 2.901 1.337-2.9h.676zm.429 0h.69v3.618h-.69v-3.618zm.345-.696a.487.487 0 01-.338-.123.398.398 0 01-.13-.3c0-.119.044-.219.13-.3a.472.472 0 01.338-.13c.134 0 .244.04.33.123a.369.369 0 01.137.293.417.417 0 01-.136.314.461.461 0 01-.331.123zm2.835.662c.527 0 .93.123 1.208.369.283.245.424.612.424 1.099v2.184h-.654v-.478a1.1 1.1 0 01-.496.39 1.998 1.998 0 01-.755.129c-.427 0-.77-.098-1.028-.293a.927.927 0 01-.381-.772c0-.318.122-.573.366-.764.245-.196.633-.294 1.165-.294h1.093v-.13c0-.282-.086-.498-.259-.648-.172-.15-.426-.225-.762-.225-.225 0-.446.036-.661.109a1.682 1.682 0 00-.547.28l-.288-.492c.197-.15.432-.264.705-.341a3.01 3.01 0 01.87-.123zm-.158 3.188c.264 0 .491-.055.683-.164a.988.988 0 00.417-.478v-.505h-1.064c-.585 0-.877.187-.877.56 0 .182.074.325.223.43.148.105.354.157.618.157zm3.514-2.546c.12-.21.297-.369.532-.478.235-.11.52-.164.855-.164v.635a1.407 1.407 0 00-.158-.007c-.374 0-.669.107-.884.32-.211.21-.317.51-.317.902v1.802h-.69v-3.618h.662v.608z" fill="#8050F2"/>
</svg>
