<svg xmlns="http://www.w3.org/2000/svg" fill="none" viewBox="0 0 20 19">
  <path fill-rule="evenodd" clip-rule="evenodd" d="M9.776 15.903l-.178.002c-5.3 0-9.598-3.56-9.598-7.953C0 3.56 4.297 0 9.598 0c5.3 0 9.597 3.56 9.597 7.952a6.782 6.782 0 01-.77 3.129c-.667 1.357-1.695 2.57-2.81 3.614-1.699 1.593-3.664 2.795-5.064 3.472a.541.541 0 01-.775-.492v-1.772zm-3.469-7.54a1.371 1.371 0 11-2.742 0 1.371 1.371 0 012.742 0zm3.29 1.372a1.371 1.371 0 100-2.742 1.371 1.371 0 000 2.742zm6.034-1.371a1.371 1.371 0 11-2.743 0 1.371 1.371 0 012.743 0z" fill="#FBFBFB"/>
  <path fill-rule="evenodd" clip-rule="evenodd" d="M9.598 15.905c5.3 0 9.597-3.56 9.597-7.953C19.195 3.56 14.9 0 9.598 0 4.298 0 0 3.56 0 7.952c0 4.392 4.297 7.953 9.598 7.953zm-4.662-6.17a1.371 1.371 0 100-2.742 1.371 1.371 0 000 2.742zm6.033-1.371a1.371 1.371 0 11-2.742 0 1.371 1.371 0 012.742 0zm3.29 1.37a1.371 1.371 0 100-2.741 1.371 1.371 0 000 2.742z" fill="#fff"/>
</svg>
