<svg xmlns="http://www.w3.org/2000/svg" fill="none" viewBox="0 0 25 24">
  <path fill-rule="evenodd" clip-rule="evenodd" d="M12.477 20.298l-.227.002C5.485 20.3 0 15.756 0 10.15 0 4.544 5.485 0 12.25 0S24.5 4.544 24.5 10.15c0 1.418-.35 2.768-.984 3.993-.85 1.733-2.162 3.28-3.586 4.613-2.168 2.033-4.677 3.567-6.463 4.432-.473.229-.99-.13-.99-.628v-2.262zM8.05 10.675a1.75 1.75 0 11-3.5 0 1.75 1.75 0 013.5 0zm4.2 1.75a1.75 1.75 0 100-3.5 1.75 1.75 0 000 3.5zm7.7-1.75a1.75 1.75 0 11-3.5 0 1.75 1.75 0 013.5 0z" fill="#FBFBFB"/>
  <path fill-rule="evenodd" clip-rule="evenodd" d="M12.25 20.3c6.765 0 12.25-4.544 12.25-10.15C24.5 4.544 19.015 0 12.25 0S0 4.544 0 10.15C0 15.756 5.485 20.3 12.25 20.3zM6.3 12.425a1.75 1.75 0 100-3.5 1.75 1.75 0 000 3.5zm7.7-1.75a1.75 1.75 0 11-3.5 0 1.75 1.75 0 013.5 0zm4.2 1.75a1.75 1.75 0 100-3.5 1.75 1.75 0 000 3.5z" fill="#fff"/>
</svg>
