<svg xmlns="http://www.w3.org/2000/svg" fill="none" viewBox="0 0 42 40">
  <path fill-rule="evenodd" clip-rule="evenodd" d="M21.092 34.314a25.77 25.77 0 01-.384.003C9.271 34.317 0 26.635 0 17.158 0 7.682 9.271 0 20.708 0c11.437 0 20.709 7.682 20.709 17.158 0 2.397-.593 4.679-1.664 6.75-1.437 2.93-3.655 5.544-6.061 7.799-3.666 3.436-7.907 6.03-10.927 7.491-.8.387-1.673-.218-1.673-1.062v-3.822zm-7.484-16.268a2.958 2.958 0 11-5.916 0 2.958 2.958 0 015.916 0zm7.1 2.958a2.958 2.958 0 100-5.917 2.958 2.958 0 000 5.917zm13.017-2.958a2.958 2.958 0 11-5.917 0 2.958 2.958 0 015.917 0z" fill="#FBFBFB"/>
  <path fill-rule="evenodd" clip-rule="evenodd" d="M20.708 34.317c11.437 0 20.709-7.682 20.709-17.159C41.417 7.682 32.145 0 20.708 0S0 7.682 0 17.158c0 9.477 9.271 17.159 20.708 17.159zM10.65 21.004a2.958 2.958 0 100-5.917 2.958 2.958 0 000 5.917zm13.017-2.958a2.958 2.958 0 11-5.917 0 2.958 2.958 0 015.917 0zm7.1 2.958a2.958 2.958 0 100-5.917 2.958 2.958 0 000 5.917z" fill="#fff"/>
</svg>
