<svg xmlns="http://www.w3.org/2000/svg" fill="none" viewBox="0 0 64 64">
  <path d="M0 32C0 14.327 14.327 0 32 0c17.673 0 32 14.327 32 32 0 17.673-14.327 32-32 32C14.327 64 0 49.673 0 32z" fill="red"/>
  <path d="M48.354 24.098c-.393-1.508-1.55-2.696-3.018-3.099C42.674 20.267 32 20.267 32 20.267s-10.674 0-13.335.732c-1.47.403-2.626 1.59-3.018 3.099-.713 2.733-.713 8.436-.713 8.436s0 5.702.713 8.435c.392 1.508 1.549 2.696 3.018 3.099C21.326 44.8 32 44.8 32 44.8s10.674 0 13.336-.732c1.468-.403 2.625-1.59 3.018-3.099.713-2.733.713-8.435.713-8.435s0-5.703-.713-8.436" fill="#fff"/>
  <path d="M28.8 38.4V27.733l8.534 5.334L28.8 38.4z" fill="red"/>
</svg>
