<svg xmlns="http://www.w3.org/2000/svg" fill="none" viewBox="0 0 74 67">
  <path d="M.798 36.946C1.238 20.62 17.605 5.732 37.353 3.693c19.749-2.04 35.4 9.542 34.96 25.867-.44 16.326-16.807 31.214-36.556 33.253C16.01 64.853.357 53.272.798 36.946z" fill="red"/>
  <path d="M54.62 24.26c-.394-1.324-1.634-2.27-3.234-2.468-2.9-.36-14.595.865-14.595.865s-11.697 1.224-14.63 2.195c-1.62.534-2.914 1.745-3.38 3.16-.845 2.563-.978 7.742-.978 7.742s-.134 5.178.584 7.579c.395 1.324 1.635 2.27 3.235 2.467 2.9.36 14.595-.864 14.595-.864s11.697-1.225 14.63-2.195c1.619-.535 2.914-1.746 3.38-3.16.845-2.564.978-7.742.978-7.742s.134-5.179-.584-7.579" fill="#fff"/>
  <path d="M32.561 39.67l.282-9.964 9.544 3.975-9.826 5.988z" fill="red"/>
</svg>
