<svg xmlns="http://www.w3.org/2000/svg" fill="none" viewBox="0 0 55 55">
  <path d="M54.674 27.337c0 15.098-12.24 27.337-27.337 27.337C12.239 54.674 0 42.434 0 27.337 0 12.239 12.24 0 27.337 0c15.098 0 27.337 12.24 27.337 27.337z" fill="#fff"/>
  <path d="M26.646 22.286c-.195-1.75.382-3.515 1.604-4.905 1.223-1.39 2.991-2.29 4.915-2.505 5.08-.567 7.772 3.81 8.177 7.44 1.073 9.617-8.273 16.908-11.453 19.093a2.36 2.36 0 01-1.058.387 2.361 2.361 0 01-1.118-.144c-3.598-1.43-14.321-6.48-15.394-16.097-.408-3.65 1.256-8.493 6.335-9.06a7.935 7.935 0 012.833.193c.917.233 1.771.63 2.513 1.168a6.638 6.638 0 011.812 1.965 6.13 6.13 0 01.834 2.465z" fill="#FF6242"/>
</svg>
