<svg xmlns="http://www.w3.org/2000/svg" fill="none" viewBox="0 0 69 69">
  <circle cx="34.328" cy="34.328" r="34.328" fill="#FFE6EC"/>
  <path d="M33.46 27.985c-.246-2.199.479-4.414 2.014-6.159 1.535-1.745 3.755-2.877 6.172-3.146 6.378-.712 9.758 4.785 10.267 9.343 1.348 12.076-10.388 21.23-14.381 23.976-.391.264-.85.432-1.33.485a2.964 2.964 0 01-1.403-.18c-4.518-1.796-17.983-8.139-19.33-20.214-.512-4.583 1.577-10.665 7.954-11.377a9.963 9.963 0 013.557.242 9.275 9.275 0 013.157 1.467 8.336 8.336 0 012.275 2.468c.57.955.926 2.006 1.047 3.095z" fill="#FF6242"/>
</svg>
