<svg xmlns="http://www.w3.org/2000/svg" fill="none" viewBox="0 0 26 31">
  <path d="M4.955 21.365c.634-1.969-1.493-5.598 2.861-7.183-.684 4.054 4.956 5.214 3.671 9.26l-6.532-2.077z" fill="#FF6242"/>
  <path d="M20.855 6.257c.751 2.077.51 3.286-.417 4.17C16.201 7.759 11.145 5.84 10.328 0c-8.66 6.674 4.27 15.85-1.986 18.353-3.095 1.243-5.84-1.669-5.422-4.93A9.234 9.234 0 000 20.02c0 5.757 5.79 10.43 12.93 10.43 16.351 0 15.016-21.69 7.925-24.192z" fill="#FF6242"/>
  <path d="M18.77 19.187c-1.25 3.754-4.604 5.247-7.582 5.406a4.171 4.171 0 003.829 2.502c4.688.017 7.925-4.988 3.753-7.908z" fill="#FFFF49"/>
</svg>
