<svg xmlns="http://www.w3.org/2000/svg" fill="none" viewBox="0 0 39 41">
  <path opacity=".1" d="M38.468 20.837c0 10.623-8.611 19.234-19.234 19.234C8.611 40.071 0 31.46 0 20.837 0 10.214 8.611 1.603 19.234 1.603c10.623 0 19.234 8.611 19.234 19.234z" fill="#fff"/>
  <path fill-rule="evenodd" clip-rule="evenodd" d="M17.631 1.22c0-.674.583-1.22 1.302-1.22 5.93 0 11.296 2.274 15.153 5.94.505.479.5 1.25-.013 1.723a1.364 1.364 0 01-1.84-.012c-3.389-3.22-8.095-5.212-13.3-5.212-.719 0-1.302-.546-1.302-1.22z" fill="#FF8FAC"/>
  <path d="M26.944 20.524a7.301 7.301 0 11-14.602 0 7.301 7.301 0 0114.602 0z" fill="#fff"/>
</svg>
