<svg xmlns="http://www.w3.org/2000/svg" fill="none" viewBox="0 0 61 61">
  <circle cx="30.5" cy="30.5" r="30.5" fill="#fff"/>
  <path fill-rule="evenodd" clip-rule="evenodd" d="M30.89 14.277c-4.51 0-5.077.02-6.85.1-1.768.081-2.975.361-4.031.772a8.134 8.134 0 00-2.943 1.915 8.155 8.155 0 00-1.918 2.943c-.411 1.057-.692 2.264-.771 4.032-.08 1.772-.1 2.339-.1 6.85 0 4.512.02 5.077.1 6.849.081 1.769.361 2.976.772 4.032a8.14 8.14 0 001.916 2.943 8.134 8.134 0 002.942 1.917c1.057.411 2.264.691 4.032.772 1.772.08 2.338.1 6.85.1s5.076-.02 6.848-.1c1.77-.08 2.978-.36 4.035-.772a8.127 8.127 0 002.94-1.917 8.155 8.155 0 001.918-2.943c.408-1.056.689-2.264.772-4.032.08-1.772.1-2.337.1-6.848 0-4.512-.02-5.079-.1-6.85-.083-1.77-.364-2.976-.772-4.033a8.153 8.153 0 00-1.918-2.943 8.12 8.12 0 00-2.941-1.915c-1.06-.411-2.267-.691-4.036-.772-1.772-.08-2.336-.1-6.85-.1h.006zm-.553 2.993h.554c4.436 0 4.961.016 6.713.096 1.62.074 2.499.345 3.084.572a5.138 5.138 0 011.91 1.242 5.155 5.155 0 011.243 1.911c.227.585.498 1.464.572 3.084.08 1.751.097 2.277.097 6.71 0 4.434-.018 4.96-.097 6.712-.074 1.62-.345 2.498-.572 3.083a5.137 5.137 0 01-1.244 1.909 5.139 5.139 0 01-1.909 1.242c-.585.229-1.464.499-3.084.573-1.751.08-2.277.097-6.713.097s-4.962-.018-6.713-.097c-1.62-.075-2.499-.346-3.085-.573a5.145 5.145 0 01-1.91-1.242 5.15 5.15 0 01-1.244-1.91c-.227-.585-.498-1.464-.572-3.084-.08-1.751-.095-2.277-.095-6.713 0-4.437.016-4.96.095-6.711.074-1.62.345-2.5.572-3.085a5.147 5.147 0 011.244-1.91 5.155 5.155 0 011.91-1.243c.586-.229 1.465-.499 3.085-.573 1.532-.07 2.126-.09 5.223-.094v.004h.936zm7.428 4.752a1.994 1.994 0 113.986 0 1.994 1.994 0 01-3.986 0zm-6.874.336a8.532 8.532 0 100 17.064 8.532 8.532 0 000-17.064zm5.538 8.532a5.538 5.538 0 10-11.076 0 5.538 5.538 0 0011.076 0z" fill="url(#5Ls7MERpfUa)"/>
  <defs>
    <linearGradient id="5Ls7MERpfUa" x1="30.889" y1="14.277" x2="30.889" y2="47.502" gradientUnits="userSpaceOnUse">
      <stop stop-color="#CB51EB"/>
      <stop offset="1" stop-color="#FE5B36"/>
    </linearGradient>
  </defs>
</svg>
