<svg xmlns="http://www.w3.org/2000/svg" fill="none" viewBox="0 0 47 48">
  <path opacity=".1" d="M46.08 24.96C46.08 37.685 35.764 48 23.04 48 10.315 48 0 37.685 0 24.96S10.315 1.92 23.04 1.92c12.724 0 23.04 10.316 23.04 23.04z" fill="#8050F2"/>
  <path fill-rule="evenodd" clip-rule="evenodd" d="M21.12 1.46c0-.806.698-1.46 1.56-1.46 7.103 0 13.53 2.724 18.151 7.114a1.396 1.396 0 01-.016 2.065c-.613.567-1.6.56-2.204-.014-4.06-3.856-9.696-6.244-15.932-6.244-.86 0-1.559-.654-1.559-1.46z" fill="#FF8FAC"/>
  <path d="M32.275 24.586a8.746 8.746 0 11-17.49 0 8.746 8.746 0 0117.49 0z" fill="#8050F2"/>
</svg>
